<svg xmlns="http://www.w3.org/2000/svg" width="100" height="100" enable-background="new 0 0 100 100" viewBox="0 0 100 100"><path fill="#CCC4A4" d="M29.862,92.194c-4.671,0-9.004-2.998-10.486-7.688c-1.83-5.793,1.382-11.973,7.175-13.803
			c2.531-0.8,11.193-6.645,21.816-19.607C58.475,38.765,62.896,29.093,63.31,25.893c0.777-6.025,6.287-10.28,12.317-9.501
			c6.025,0.778,10.279,6.293,9.501,12.318c-1.174,9.099-8.556,22.681-19.746,36.332C61.111,70.252,46.166,87.576,33.18,91.68
			C32.077,92.028,30.96,92.194,29.862,92.194z"/><path fill="#332E1A" d="M88.033,43.645c-1.824-3.647-5.473-5.655-10.272-5.655c-1.388,0-2.852,0.175-4.277,0.502
				c1.374-1.438,2.587-2.841,3.435-4.079c4.313-6.313,7.908-18.547-0.81-24.505c-2.04-1.395-4.306-2.102-6.733-2.102
				c-6.489,0-12.91,5.144-16.394,10.239c-2.259,3.302-3.362,9.56-4.249,14.588c-0.282,1.601-0.526,2.982-0.762,4.004
				c-0.811,3.511-3.355,7.177-5.851,10.098c0.174-3.604-0.476-6.773-1.944-9.1c-1.568-2.485-4-3.98-7.031-4.324
				c-0.531-0.06-1.061-0.091-1.574-0.091c-8.424,0-12.648,7.952-13.099,15.834c-0.176,3.093-0.128,6.026-0.085,8.615
				c0.099,6.028,0.176,10.789-2.394,14.423c-0.288,0.408-1.348,1.628-2.062,2.424c-1.961,1.795-3.125,4.239-3.28,6.898
				c-0.159,2.711,0.747,5.321,2.553,7.35c1.925,2.167,4.694,3.409,7.596,3.409c2.49,0,4.888-0.912,6.751-2.567
				c0.019-0.017,0.05-0.046,0.08-0.076c3.646-3.086,10.315-8.271,12.926-9.232c1.041-0.382,2.648-0.494,4.311-0.286
				c0.881,0.108,2.43,0.438,4.073,0.787c3.277,0.696,6.991,1.485,9.487,1.485h0.001c0.368,0,0.707-0.018,1.012-0.051
				c6.688-0.723,13.308-4.695,13.01-11.94c-0.158-3.807-2.541-6.37-5.796-7.829c3.375-1.104,7.43-2.106,11.449-2.313
				c4.08-0.212,7.84-2.442,9.811-5.823C89.809,51.077,89.851,47.284,88.033,43.645z M83.594,51.808
				c-1.121,1.927-3.302,3.201-5.696,3.342c-0.001-0.086,0.012-0.168,0.008-0.255c-0.073-1.723-0.647-3.297-1.573-4.321
				c-0.557-0.616-1.508-0.66-2.119-0.106c-0.615,0.556-0.662,1.504-0.106,2.118c0.354,0.392,0.75,1.237,0.801,2.438
				c0.007,0.144-0.009,0.268-0.013,0.401c-9.641,1.24-18.344,5.729-18.746,5.938c-1.105,0.576-1.618,1.879-1.201,3.054
				c0.412,1.156,1.603,1.845,2.801,1.623c0.426-0.044,0.881-0.065,1.355-0.065c2.824,0,8.202,0.945,8.351,4.524
				c0.103,2.495-1.378,4.084-3.14,5.092l-0.418-1.252c-0.132-0.394-0.555-0.603-0.949-0.475c-0.393,0.132-0.605,0.557-0.475,0.949
				l0.477,1.431c-1.438,0.579-2.834,0.846-3.576,0.956l-0.615-3.287c-0.076-0.407-0.479-0.677-0.875-0.6
				c-0.407,0.076-0.676,0.468-0.6,0.875l0.575,3.072c-1.03-0.059-2.353-0.259-3.758-0.518l0.015-3.436
				c0.002-0.414-0.334-0.751-0.747-0.753h-0.003c-0.413,0-0.748,0.334-0.75,0.747l-0.014,3.151c-0.896-0.18-1.788-0.368-2.623-0.545
				c-0.309-0.065-0.599-0.127-0.893-0.188l0.262-1.253c0.084-0.405-0.176-0.803-0.581-0.888c-0.409-0.088-0.804,0.176-0.888,0.581
				l-0.262,1.257c-0.823-0.164-1.551-0.295-2.132-0.367c-2.461-0.309-4.841-0.109-6.651,0.555
				c-4.321,1.59-13.475,9.297-14.504,10.17c-0.034,0.028-0.09,0.081-0.139,0.128c-0.941,0.82-2.144,1.271-3.392,1.271
				c-1.475,0-2.881-0.631-3.86-1.732c-0.917-1.03-1.378-2.356-1.297-3.733c0.08-1.377,0.692-2.639,1.724-3.556
				c0.069-0.062,0.136-0.127,0.198-0.196c0.272-0.303,1.491-1.666,2.199-2.564c0.52,0.133,1.092,0.334,1.711,0.662
				c1.431,0.761,2.265,1.694,2.567,2.314c0.261,0.532,0.794,0.841,1.349,0.841c0.221,0,0.446-0.049,0.658-0.152
				c0.744-0.364,1.053-1.263,0.688-2.007c-0.67-1.37-2.073-2.698-3.854-3.646c-0.493-0.262-0.995-0.479-1.494-0.659
				c2.164-4.44,2.089-9.466,1.996-15.157c-0.043-2.625-0.089-5.34,0.078-8.249c0.045-0.783,0.143-1.586,0.284-2.385
				c0.561-0.139,1.229-0.228,1.977-0.214c1.62,0.026,2.785,0.479,3.338,0.895c0.271,0.203,0.586,0.301,0.9,0.301
				c0.455,0,0.905-0.207,1.201-0.599c0.496-0.662,0.363-1.603-0.299-2.101c-1.22-0.917-3.075-1.462-5.09-1.496
				c-0.396-0.006-0.777,0.023-1.156,0.056c1.211-3.114,3.42-5.575,6.951-5.575c0.326,0,0.667,0.021,1.012,0.06
				c1.533,0.174,2.604,0.816,3.365,2.023c1.692,2.682,1.586,7.894-0.271,13.278c-0.366,1.063,0.021,2.239,0.947,2.876
				c0.925,0.636,2.164,0.576,3.023-0.146c0.216-0.181,2.752-2.332,5.573-5.525c0.839,0.2,2.007,0.697,3.278,1.637
				c1.596,1.181,2.49,2.418,2.793,3.183c0.234,0.588,0.798,0.946,1.395,0.946c0.185,0,0.372-0.034,0.554-0.105
				c0.77-0.306,1.146-1.178,0.841-1.948c-0.602-1.51-1.984-3.146-3.801-4.488c-0.982-0.726-2.007-1.299-3-1.699
				c2.426-3.108,4.701-6.816,5.563-10.548c0.266-1.149,0.52-2.591,0.814-4.261c0.718-4.07,1.803-10.222,3.452-12.633
				c0.375-0.548,0.797-1.097,1.252-1.636c1.368-0.088,3.013,0.119,4.671,0.617c0.146,0.043,0.29,0.063,0.434,0.063
				c0.645,0,1.24-0.419,1.436-1.068c0.238-0.794-0.212-1.63-1.006-1.868c-0.898-0.27-1.791-0.461-2.664-0.588
				c2.508-2.078,5.447-3.583,8.145-3.583c1.422,0,2.702,0.402,3.912,1.229c5.923,4.048,2.223,13.576-0.497,17.556
				c-0.717,1.048-1.825,2.309-3.097,3.627c-0.395-0.636-0.865-1.25-1.418-1.819c-1.673-1.729-3.76-2.786-5.726-2.9
				c-0.832-0.048-1.536,0.583-1.585,1.41c-0.048,0.827,0.584,1.536,1.411,1.584c1.206,0.07,2.604,0.815,3.745,1.994
				c0.581,0.599,1.047,1.262,1.369,1.928c-1.893,1.824-3.867,3.605-5.371,4.96c-0.575,0.518-1.102,0.992-1.557,1.407
				c-0.737,0.673-2.109,1.925-1.426,3.686c0.387,0.998,1.342,1.643,2.436,1.643c1.054-0.001,2.168-0.54,6.475-2.851
				c1.515-0.812,3.081-1.651,3.956-2.041c1.73-0.77,3.884-1.229,5.758-1.229c2.888,0,4.841,0.973,5.8,2.891
				C84.892,48.545,84.314,50.575,83.594,51.808z"/><path fill="#332E1A" d="M67.184 21.817c.587.42 1.08.871 1.427 1.304.296.37.732.563 1.171.563.33 0 .661-.107.938-.329.646-.518.751-1.462.233-2.108-.523-.653-1.204-1.281-2.022-1.868-.673-.481-1.61-.327-2.093.347C66.354 20.397 66.51 21.334 67.184 21.817zM40.217 63.116c-1.57-1.258-3.344-2.021-4.871-2.095-.806-.041-1.529.598-1.569 1.426-.04.827.599 1.53 1.426 1.57.69.033 1.878.43 3.14 1.44 1.266 1.013 1.91 2.084 2.092 2.748.182.667.787 1.104 1.446 1.104.13 0 .265-.017.396-.053.8-.219 1.269-1.044 1.052-1.843C42.925 65.942 41.791 64.375 40.217 63.116z"/></svg>